<svg id="Layer_4" data-name="Layer 4" xmlns="http://www.w3.org/2000/svg" width="69.35" height="42.91" viewBox="0 0 69.35 42.91"><defs><style>.cls-1,.cls-2,.cls-3{fill:none;stroke:#f7bd13;}.cls-1{stroke-width:2px;}.cls-2{stroke-width:1.86px;}.cls-4{fill:#606060;}.cls-5{fill:#6f2522;}</style></defs><g id="copper0"><circle id="connector130pad" class="cls-1" cx="3.12" cy="23.6" r="1.97"/><circle id="connector130pad-2" data-name="connector130pad" class="cls-1" cx="3.12" cy="31.77" r="1.97"/><circle id="connector130pad-3" data-name="connector130pad" class="cls-1" cx="3.12" cy="39.94" r="1.97"/><circle id="connector130pad-4" data-name="connector130pad" class="cls-1" cx="66.38" cy="23.6" r="1.97"/><circle id="connector130pad-5" data-name="connector130pad" class="cls-1" cx="66.38" cy="31.77" r="1.97"/><circle id="connector130pad-6" data-name="connector130pad" class="cls-1" cx="66.38" cy="39.94" r="1.97"/><circle id="connector138pad" class="cls-2" cx="8.82" cy="5.4" r="4.47"/><circle id="connector138pad-2" data-name="connector138pad" class="cls-2" cx="61.27" cy="5.4" r="4.47"/><g id="Layer_7" data-name="Layer 7"><rect class="cls-3" x="0.5" y="20.89" width="5.18" height="5.18"/></g></g><g id="PBC"><path class="cls-4" d="M21.8,13.62h1c.73,0,1.23.21,1.23.75a.7.7,0,0,1-.63.67v0c.53.07.84.31.84.73,0,.61-.55.9-1.36.9H21.8Zm.94,1.29c.62,0,.86-.17.86-.51s-.28-.46-.84-.46h-.51v1Zm.09,1.45c.62,0,1-.17,1-.59s-.34-.53-1-.53h-.58v1.12Z" transform="translate(-1.4 -3.77)"/><path class="cls-4" d="M25.82,14.41h.38l0,.54h0a1.46,1.46,0,0,1,1.19-.59,1.28,1.28,0,0,1,.53.09l-.1.33a1.63,1.63,0,0,0-.5-.07,1.27,1.27,0,0,0-1.1.65v1.33h-.45Z" transform="translate(-1.4 -3.77)"/><path class="cls-4" d="M29.17,15.55a1.25,1.25,0,0,1,1.36-1.19c.77,0,1.22.42,1.22,1.07a1.52,1.52,0,0,1,0,.23H29.47v-.3h2l-.12.11a.73.73,0,0,0-.8-.81.87.87,0,0,0-.92.89c0,.59.45.89,1,.89a1.63,1.63,0,0,0,.81-.22l.17.25a2.09,2.09,0,0,1-1,.28C29.8,16.75,29.17,16.31,29.17,15.55Z" transform="translate(-1.4 -3.77)"/><path class="cls-4" d="M33,16.1c0-.51.56-.76,1.94-.85,0-.31-.19-.57-.71-.57a2.11,2.11,0,0,0-.93.27l-.18-.26a2.47,2.47,0,0,1,1.19-.33c.73,0,1.09.37,1.09.93v1.4H35l0-.31h0a1.93,1.93,0,0,1-1.05.37C33.41,16.75,33,16.51,33,16.1Zm1.94,0v-.6c-1.14.08-1.49.27-1.49.57s.28.36.59.36A1.61,1.61,0,0,0,34.94,16.1Z" transform="translate(-1.4 -3.77)"/><path class="cls-4" d="M36.91,13.36h.46v2.25h0l1.43-1.2h.52l-2,1.66v.62h-.46Zm1,2.12.27-.25,1.28,1.46H39Z" transform="translate(-1.4 -3.77)"/><path class="cls-4" d="M40.43,15.56a1.33,1.33,0,1,1,1.32,1.19A1.21,1.21,0,0,1,40.43,15.56Zm2.17,0a.85.85,0,1,0-1.7,0,.85.85,0,1,0,1.7,0Z" transform="translate(-1.4 -3.77)"/><path class="cls-4" d="M44.3,15.83V14.41h.45v1.37c0,.42.18.63.62.63A1.1,1.1,0,0,0,46.2,16V14.41h.45v2.28h-.37l0-.4h0a1.35,1.35,0,0,1-1,.46A.81.81,0,0,1,44.3,15.83Z" transform="translate(-1.4 -3.77)"/><path class="cls-4" d="M48.78,15.8V14.73H48v-.29l.77,0,.06-.73h.38v.73h1.31v.32H49.23v1.08c0,.41.16.62.68.62a1.83,1.83,0,0,0,.64-.11l.09.29a2.52,2.52,0,0,1-.83.14C49,16.75,48.78,16.37,48.78,15.8Z" transform="translate(-1.4 -3.77)"/><path class="cls-4" d="M21.87,8h.65l.33,2.9c0,.39.07.61.09,1.07h0c.08-.46.13-.68.22-1.06l.45-1.72h.55l.43,1.72c.09.38.13.6.22,1.06h0c0-.46,0-.68.08-1.06L25.26,8h.62l-.66,4.62H24.5l-.45-1.86a7.6,7.6,0,0,1-.16-.83h0c-.05.29-.09.55-.16.83l-.44,1.86h-.71Z" transform="translate(-1.4 -3.77)"/><path class="cls-4" d="M26.41,12l.34-.4a1.93,1.93,0,0,0,1.33.57c.62,0,1-.31,1-.73s-.35-.63-.81-.83l-.65-.29a1.32,1.32,0,0,1-1-1.19,1.34,1.34,0,0,1,1.49-1.23,2,2,0,0,1,1.4.57l-.31.38a1.61,1.61,0,0,0-1.11-.43c-.53,0-.88.26-.88.67s.42.61.81.76l.64.29c.56.23,1,.55,1,1.23s-.61,1.32-1.61,1.32A2.27,2.27,0,0,1,26.41,12Z" transform="translate(-1.4 -3.77)"/><path class="cls-4" d="M30.6,12.25c1.49-1.35,2.3-2.13,2.3-2.88A.83.83,0,0,0,32,8.5,1.53,1.53,0,0,0,30.89,9l-.33-.33A2,2,0,0,1,32,8a1.3,1.3,0,0,1,1.44,1.32c0,.85-.83,1.68-2,2.79.28,0,.56,0,.82,0H33.7v.5H30.6Z" transform="translate(-1.4 -3.77)"/><path class="cls-4" d="M34.71,11.45a1.38,1.38,0,0,1,.94-1.2v0A1.26,1.26,0,0,1,35,9.17a1.38,1.38,0,0,1,2.73.05A1.39,1.39,0,0,1,37,10.28v0c.49.25.87.53.87,1.17s-.58,1.2-1.59,1.2S34.71,12.16,34.71,11.45Zm2.65,0c0-.62-.62-.78-1.38-1-.43.23-.76.52-.76,1s.44.85,1.12.85S37.36,11.92,37.36,11.46Zm-.14-2.22a.8.8,0,0,0-.89-.78.73.73,0,0,0-.82.71c0,.54.5.76,1.16,1A1.14,1.14,0,0,0,37.22,9.24Z" transform="translate(-1.4 -3.77)"/><path class="cls-4" d="M39.05,12.11h1.27V8.81h-1V8.44a3.23,3.23,0,0,0,1.13-.34h.43v4H42v.48h-3Z" transform="translate(-1.4 -3.77)"/><path class="cls-4" d="M43,12.25c1.49-1.35,2.31-2.13,2.31-2.88a.83.83,0,0,0-1-.87A1.51,1.51,0,0,0,43.33,9L43,8.7A1.93,1.93,0,0,1,44.45,8a1.29,1.29,0,0,1,1.44,1.32c0,.85-.83,1.68-2,2.79.27,0,.56,0,.82,0h1.44v.5H43Z" transform="translate(-1.4 -3.77)"/><path class="cls-4" d="M47.36,8h1.28c.93,0,1.56.31,1.56,1.12a1,1,0,0,1-.8,1v0a1.06,1.06,0,0,1,1.05,1.1c0,.91-.69,1.35-1.71,1.35H47.36Zm1.18,1.94c.78,0,1.09-.25,1.09-.77s-.36-.68-1.06-.68h-.64V9.92Zm.12,2.18c.78,0,1.23-.26,1.23-.89s-.43-.8-1.23-.8h-.73V12.1Z" transform="translate(-1.4 -3.77)"/><circle class="cls-5" cx="3.12" cy="23.6" r="1.34"/><circle class="cls-5" cx="3.12" cy="31.77" r="1.34"/><circle class="cls-5" cx="3.12" cy="39.94" r="1.34"/><circle class="cls-5" cx="66.38" cy="23.69" r="1.34"/><circle class="cls-5" cx="66.38" cy="31.85" r="1.34"/><circle class="cls-5" cx="66.38" cy="40.02" r="1.34"/><circle class="cls-5" cx="8.82" cy="5.4" r="3.72"/><circle class="cls-5" cx="61.27" cy="5.52" r="3.72"/></g></svg>