<svg id="Layer_1" data-name="Layer 1" xmlns="http://www.w3.org/2000/svg" width="99.31" height="36.25" viewBox="0 0 99.31 36.25"><defs><style>.cls-1,.cls-2,.cls-3{fill:none;}.cls-1{stroke:#000;stroke-width:0.9px;}.cls-1,.cls-2{stroke-linecap:round;stroke-linejoin:round;}.cls-2{stroke:#787878;stroke-width:0.7px;}.cls-4{fill:#8c8c8c;}</style></defs><g id="schematic"><rect class="cls-1" x="18.64" y="0.45" width="62.34" height="35.35"/><path d="M56,6.48H57.1l.21.18v.52l-.13.17H56Zm0-1.21h.57a1,1,0,0,1,.43,0l.2.14v.5L57,6.06H56Zm.71,2.54h.45l.31-.13.21-.28L57.79,7l-.06-.49-.4-.26.3-.26.1-.42-.12-.36L57.31,5a1.51,1.51,0,0,0-.52,0h-1V7.81Zm-2.94-.34.15-.18a2,2,0,0,1,.41-.36c.18-.17.35-.35.51-.53l.24-.34V5.72a.71.71,0,0,0-.24-.57.85.85,0,0,0-.62-.24,1,1,0,0,0-.66.22.87.87,0,0,0-.27.63h.35l.12-.41.4-.14.39.14.14.37-.16.42a4.47,4.47,0,0,1-.63.6c-.15.14-.31.29-.45.44l-.22.39v.24H55.1V7.47ZM52.47,4.91h-.21l-.32.38a1.64,1.64,0,0,1-.52.35V6l.41-.21.31-.24V7.81h.35Zm-3,1.65.39-.16.41.16.19.43-.19.42-.39.16h-.24l-.22-.22V7.07Zm0-1.22.37-.13.33.13.14.34-.14.3-.31.14L49.53,6l-.14-.32ZM49,6.5a.93.93,0,0,0,.12,1.11,1,1,0,0,0,.67.24,1,1,0,0,0,.7-.24A.9.9,0,0,0,50.71,7l-.14-.47-.35-.29L50.55,6l.09-.34a.75.75,0,0,0-.23-.55.81.81,0,0,0-.59-.22.84.84,0,0,0-.58.22.72.72,0,0,0-.23.53V6l.34.21Zm-2,1,.16-.18a1.67,1.67,0,0,1,.39-.36A6.63,6.63,0,0,0,48,6.4l.24-.34V5.72A.78.78,0,0,0,48,5.15a.8.8,0,0,0-.63-.24,1,1,0,0,0-.66.22,1,1,0,0,0-.27.63h.36L47,5.32l.39-.15.39.15.14.36-.16.42a4.32,4.32,0,0,1-.61.6,3.73,3.73,0,0,0-.45.44l-.24.38v.25h1.88V7.43Zm-2.9,0,.42.34a1.72,1.72,0,0,0,.64.11,1.45,1.45,0,0,0,.54-.11L46,7.49l.14-.42,0-.42-.23-.34a3.65,3.65,0,0,0-.64-.2,1.09,1.09,0,0,1-.55-.21l-.11-.29.16-.27a.79.79,0,0,1,.49-.13.7.7,0,0,1,.5.14.62.62,0,0,1,.2.43h.35l-.14-.44L45.79,5a1.11,1.11,0,0,0-.56-.12,1.49,1.49,0,0,0-.51.1l-.35.31-.12.4.09.36.31.26a2.45,2.45,0,0,0,.54.18,2.85,2.85,0,0,1,.5.14l.26.16v.49l-.24.18H44.9l-.29-.22-.12-.36h-.34a1.09,1.09,0,0,0,.13.5Zm-2.85.41L42,5.61V5.27a.67.67,0,0,0,.1.34l.58,2.2H43l.92-2.89h-.39l-.44,1.86c0,.21-.1.42-.13.63a3.65,3.65,0,0,0-.22-1l-.41-1.46H42L41.44,7a1.33,1.33,0,0,1-.13.52,2.85,2.85,0,0,0-.12-.58L40.75,5h-.4l.75,2.89Z" transform="translate(0.35 0.45)"/><line class="cls-2" x1="0.35" y1="9.4" x2="18.19" y2="9.4"/><rect id="connector0terminal" class="cls-3" x="14.04" y="11.73" height="0.72"/><line class="cls-2" x1="0.35" y1="18.21" x2="18.19" y2="18.21"/><rect id="connector1terminal" class="cls-3" x="14.04" y="19.16" height="0.72"/><line class="cls-2" x1="0.35" y1="27.09" x2="18.19" y2="27.09"/><rect id="connector2terminal" class="cls-3" x="14.04" y="26.59" height="0.72"/><path class="cls-2" d="M95.05,11.51" transform="translate(0.35 0.45)"/><path class="cls-2" d="M80.53,11.51" transform="translate(0.35 0.45)"/><line id="connector5pin" class="cls-3" x1="81.24" y1="12.32" x2="81.24" y2="11.6"/><line id="connector5pin-2" class="cls-3" x1="95.76" y1="11.6" x2="95.76" y2="12.32"/><rect id="connector5terminal" class="cls-3" x="66.11" y="11.69" height="0.72"/><path class="cls-2" d="M95.05,18.94" transform="translate(0.35 0.45)"/><path class="cls-2" d="M80.53,18.94" transform="translate(0.35 0.45)"/><polyline id="connector4pin" class="cls-3" points="81.3 19.05 81.3 18.32 95.82 18.32 95.82 19.05"/><rect id="connector4terminal" class="cls-3" x="66.11" y="19.12" height="0.72"/><path class="cls-2" d="M95.05,26.37" transform="translate(0.35 0.45)"/><path class="cls-2" d="M80.53,26.37" transform="translate(0.35 0.45)"/><polyline id="connector3pin" class="cls-3" points="81.24 27.18 81.24 26.46 95.76 26.46 95.76 27.18"/><rect id="connector3terminal" class="cls-3" x="66.11" y="26.55" height="0.72"/><path class="cls-4" d="M9.69,6H9.54a.67.67,0,0,1-.19.25A1.4,1.4,0,0,1,9,6.48v.2l.22-.1.21-.16V7.87h.22Z" transform="translate(0.35 0.45)"/><path class="cls-4" d="M9,16.46l.11-.14.25-.23a2.9,2.9,0,0,0,.34-.36l.15-.23v-.18A.48.48,0,0,0,9.65,15a.56.56,0,0,0-.41-.15.63.63,0,0,0-.4.14.57.57,0,0,0-.18.4h.23A.33.33,0,0,1,9,15.07.35.35,0,0,1,9.24,15a.41.41,0,0,1,.24.08l.1.24a.5.5,0,0,1-.11.26,3,3,0,0,1-.39.4,1.5,1.5,0,0,0-.29.27l-.15.25v.16H9.82v-.22Z" transform="translate(0.35 0.45)"/><path class="cls-4" d="M8.89,25.44a.5.5,0,0,0,.39.14.54.54,0,0,0,.43-.17A.56.56,0,0,0,9.89,25a.63.63,0,0,0-.1-.3.55.55,0,0,0-.24-.15l.18-.16.06-.21L9.73,24l-.19-.18a.5.5,0,0,0-.27-.07.54.54,0,0,0-.36.14.52.52,0,0,0-.18.35H9A.38.38,0,0,1,9.1,24l.21-.08.22.08.08.21a.26.26,0,0,1-.11.23.35.35,0,0,1-.26.07h0v.2h.15a.39.39,0,0,1,.25.1.33.33,0,0,1,.1.26.38.38,0,0,1-.35.42l-.28-.1A.46.46,0,0,1,9,25.06H8.75A.49.49,0,0,0,8.89,25.44Z" transform="translate(0.35 0.45)"/><path class="cls-4" d="M87.89,7.53a.36.36,0,0,1,.25-.11.32.32,0,0,1,.25.11.45.45,0,0,1,.1.3.53.53,0,0,1-.1.32.36.36,0,0,1-.25.11H88l-.14-.16V7.87A.46.46,0,0,1,87.89,7.53Zm.65-.83a.55.55,0,0,0-.4-.14.53.53,0,0,0-.46.22,1.3,1.3,0,0,0-.19.77,1.11,1.11,0,0,0,.17.69.62.62,0,0,0,.46.21.6.6,0,0,0,.29-.08.55.55,0,0,0,.2-.23.71.71,0,0,0,.07-.32.6.6,0,0,0-.15-.43.5.5,0,0,0-.34-.16L88,7.29l-.2.19A1.67,1.67,0,0,1,87.81,7,.6.6,0,0,1,88,6.82l.16-.12.22.11.08.19h.22A.56.56,0,0,0,88.54,6.7Z" transform="translate(0.35 0.45)"/><path class="cls-4" d="M87.78,17a.56.56,0,0,0,.41.14.53.53,0,0,0,.47-.23.6.6,0,0,0,.14-.43.54.54,0,0,0-.16-.42.5.5,0,0,0-.39-.18.63.63,0,0,0-.35.13l.11-.5h.71v-.22h-.9l-.17.94h.2l.15-.12.19,0a.38.38,0,0,1,.28.11.41.41,0,0,1,.1.3.44.44,0,0,1-.11.33.33.33,0,0,1-.27.12L88,16.88a.53.53,0,0,1-.13-.27h-.23A.54.54,0,0,0,87.78,17Z" transform="translate(0.35 0.45)"/><path class="cls-4" d="M87.69,24.64l.57-.84v.84Zm.79.65v-.45h.24v-.2h-.24v-1.2H88.3l-.82,1.2v.2h.78v.45Z" transform="translate(0.35 0.45)"/><path d="M23.09,10l.74-2.07h-.29l-.35,1c-.09.27-.17.53-.23.77h0c-.06-.24-.13-.49-.22-.77l-.33-1h-.28L22.8,10ZM21.88,7.91h-.94l-.13,1h.27c.4,0,.57.19.57.45a.44.44,0,0,1-.45.43h0a1,1,0,0,1-.42-.1l-.06.21a1,1,0,0,0,.48.12.69.69,0,0,0,.74-.65v0a.58.58,0,0,0-.28-.52.92.92,0,0,0-.43-.11h-.16l.08-.52h.75Z" transform="translate(0.35 0.45)"/><path d="M78.38,10.51l.73-2.06h-.28l-.35,1c-.09.28-.17.54-.23.78h0c-.07-.24-.14-.5-.23-.78l-.32-1h-.28l.66,2.06ZM77.17,8.45h-.94l-.13,1h.27c.39,0,.56.18.56.44a.44.44,0,0,1-.43.45h0a.87.87,0,0,1-.42-.14l-.06.21a.88.88,0,0,0,.48.12.67.67,0,0,0,.73-.62.2.2,0,0,0,0-.07.59.59,0,0,0-.29-.52.87.87,0,0,0-.42-.1h-.16l.08-.51h.75Z" transform="translate(0.35 0.45)"/><path d="M22.94,16.15v2.07h.27V16.15Zm-1.75.23h.31a.74.74,0,0,1,.82.65.86.86,0,0,1,0,.16.81.81,0,0,1-.7.89h-.44Zm-.26,1.86h.47a1.22,1.22,0,0,0,.91-.3,1.05,1.05,0,0,0,.29-.82,1,1,0,0,0-.29-.74,1.14,1.14,0,0,0-.83-.26,5,5,0,0,0-.55,0Z" transform="translate(0.35 0.45)"/><path d="M78.55,17c.36,0,.53.43.53.85s-.19.87-.53.87-.53-.4-.53-.85S78.2,17,78.55,17Zm0-.22c-.44,0-.76.43-.76,1.09s.3,1,.73,1,.77-.38.77-1.11-.27-1-.73-1Zm-2.07.26h.24c.45,0,.67.32.67.81s-.25.89-.7.89h-.21Zm-.21,1.86h.4a.91.91,0,0,0,.72-.31,1.3,1.3,0,0,0,.25-.81,1.13,1.13,0,0,0-.24-.75.81.81,0,0,0-.67-.26,1.77,1.77,0,0,0-.46,0Z" transform="translate(0.35 0.45)"/><path d="M78,25.39a1.71,1.71,0,0,1,.32,0,.74.74,0,0,1,.82.65.86.86,0,0,1,0,.16.78.78,0,0,1-.69.88.48.48,0,0,1-.17,0H78Zm-.26,1.9a3.84,3.84,0,0,0,.48,0,1.23,1.23,0,0,0,.9-.3,1,1,0,0,0,.29-.8,1,1,0,0,0-.28-.76,1.17,1.17,0,0,0-.82-.26,5.42,5.42,0,0,0-.57,0Zm-1.74,0V25.5h0a6,6,0,0,0,.38.71l.64,1h.28V25.17h-.22v1.74h0a5.44,5.44,0,0,0-.37-.67l-.65-1h-.29v2.06Zm-.65-1.1h-.67v.21H75V27a.83.83,0,0,1-.35,0,.74.74,0,0,1-.76-.75v-.07a.78.78,0,0,1,.71-.84h.12a1.17,1.17,0,0,1,.45.09l.06-.22a1.24,1.24,0,0,0-.5-.1,1,1,0,0,0-1.11.93v.11a1.1,1.1,0,0,0,.28.77,1,1,0,0,0,.77.28,1.88,1.88,0,0,0,.62-.11Z" transform="translate(0.35 0.45)"/><path d="M24.86,25.55a.86.86,0,0,1,.32,0,.73.73,0,0,1,.82.62.54.54,0,0,1,0,.18.8.8,0,0,1-.69.89h-.45Zm-.25,1.85h.48a1.21,1.21,0,0,0,.9-.3,1.15,1.15,0,0,0,.3-.81,1,1,0,0,0-.29-.74,1.08,1.08,0,0,0-.82-.27,2.75,2.75,0,0,0-.57,0Zm-1.74,0V25.65h0a6.8,6.8,0,0,0,.38.7l.65,1h.27V25.32h-.25v1.73h0a6.42,6.42,0,0,0-.37-.68l-.65-1h-.3V27.4Zm-.65-1.09h-.63v.22H22v.63a.8.8,0,0,1-.34.05.76.76,0,0,1-.8-.71.65.65,0,0,1,0-.14.78.78,0,0,1,.71-.84h.12a1,1,0,0,1,.45.08l.06-.22a1.28,1.28,0,0,0-.51-.09,1,1,0,0,0-1.1.93v.1a1.1,1.1,0,0,0,.28.78,1,1,0,0,0,.77.28,1.67,1.67,0,0,0,.62-.12Z" transform="translate(0.35 0.45)"/><line class="cls-2" x1="81.36" y1="26.88" x2="98.96" y2="26.88"/><line class="cls-2" x1="81.42" y1="18.28" x2="98.96" y2="18.28"/><line class="cls-2" x1="81.36" y1="9.55" x2="98.96" y2="9.55"/></g></svg>